<svg width="32" height="32" viewBox="0 0 32 32" fill="none" xmlns="http://www.w3.org/2000/svg">
  <!-- Background -->
  <rect width="32" height="32" rx="8" fill="#1a1a1a"/>
  
  <!-- 3D Hexagon Base (charcoal) -->
  <path d="M16 4L26.5 10.5V21.5L16 28L5.5 21.5V10.5L16 4Z" fill="#2a2a2a"/>
  
  <!-- 3D Hexagon Top Face (lighter charcoal) -->
  <path d="M16 4L26.5 10.5L21.5 13.5L16 7L10.5 13.5L5.5 10.5L16 4Z" fill="#3a3a3a"/>
  
  <!-- 3D Hexagon Left Face (darker charcoal) -->
  <path d="M5.5 10.5L16 7L16 28L5.5 21.5V10.5Z" fill="#1a1a1a"/>
  
  <!-- 3D Hexagon Right Face (medium charcoal) -->
  <path d="M16 7L26.5 10.5V21.5L16 28V7Z" fill="#2a2a2a"/>
  
  <!-- Thin Blue Line Hexagon Inside -->
  <path d="M16 8L24 13V19L16 24L8 19V13L16 8Z" fill="none" stroke="#2563eb" stroke-width="0.8"/>
  
  <!-- Inner Blue Line Hexagon -->
  <path d="M16 10L22 13.5V18.5L16 22L10 18.5V13.5L16 10Z" fill="none" stroke="#2563eb" stroke-width="0.6"/>
</svg>