<?xml version="1.0" encoding="UTF-8"?>
<svg width="64" height="64" viewBox="0 0 64 64" fill="none" xmlns="http://www.w3.org/2000/svg">
  <!-- Background Circle -->
  <circle cx="32" cy="32" r="30" fill="#2563eb" stroke="#1d4ed8" stroke-width="2"/>
  
  <!-- Main Shield -->
  <path d="M32 8L48 16V32L32 40L16 32V16L32 8Z" fill="white" stroke="#2563eb" stroke-width="1"/>
  
  <!-- Inner Shield -->
  <path d="M32 12L44 18V28L32 34L20 28V18L32 12Z" fill="#2563eb"/>
  
  <!-- Door Symbol -->
  <rect x="28" y="20" width="8" height="12" rx="1" fill="white"/>
  <circle cx="34" cy="26" r="1.5" fill="#2563eb"/>
  
  <!-- Connection Lines (IoT) -->
  <path d="M8 24L16 24M48 24L56 24M8 28L16 28M48 28L56 28" stroke="#10b981" stroke-width="2" stroke-linecap="round"/>
  <circle cx="8" cy="24" r="2" fill="#10b981"/>
  <circle cx="56" cy="24" r="2" fill="#10b981"/>
  <circle cx="8" cy="28" r="2" fill="#10b981"/>
  <circle cx="56" cy="28" r="2" fill="#10b981"/>
</svg>