<?xml version="1.0" encoding="UTF-8"?>
<svg width="120" height="140" viewBox="0 0 120 140" fill="none" xmlns="http://www.w3.org/2000/svg">
  <!-- Background -->
  <rect width="120" height="140" rx="12" fill="white"/>
  
  <!-- Logo Icon -->
  <g transform="translate(30, 20)">
    <!-- Main Shield with gradient -->
    <defs>
      <linearGradient id="shieldGradientV" x1="0%" y1="0%" x2="100%" y2="100%">
        <stop offset="0%" style="stop-color:#374151;stop-opacity:1" />
        <stop offset="100%" style="stop-color:#1f2937;stop-opacity:1" />
      </linearGradient>
      <linearGradient id="accentGradientV" x1="0%" y1="0%" x2="100%" y2="100%">
        <stop offset="0%" style="stop-color:#6366f1;stop-opacity:1" />
        <stop offset="100%" style="stop-color:#4f46e5;stop-opacity:1" />
      </linearGradient>
    </defs>
    
    <!-- Main Shield -->
    <path d="M30 5L50 15V35L30 45L10 35V15L30 5Z" fill="url(#shieldGradientV)" stroke="#111827" stroke-width="0.5"/>
    
    <!-- Inner Shield -->
    <path d="M30 10L45 17V30L30 37L15 30V17L30 10Z" fill="white"/>
    
    <!-- Door Symbol with refined design -->
    <rect x="25" y="20" width="10" height="12" rx="2" fill="url(#accentGradientV)"/>
    <rect x="27" y="22" width="6" height="8" rx="1" fill="white"/>
    <circle cx="32" cy="26" r="1.8" fill="url(#accentGradientV)"/>
    
    <!-- Connection Lines (IoT) - refined -->
    <path d="M5 25L15 25M45 25L55 25M5 30L15 30M45 30L55 30" stroke="#6366f1" stroke-width="1.8" stroke-linecap="round" opacity="0.8"/>
    <circle cx="5" cy="25" r="1.8" fill="#6366f1" opacity="0.8"/>
    <circle cx="55" cy="25" r="1.8" fill="#6366f1" opacity="0.8"/>
    <circle cx="5" cy="30" r="1.8" fill="#6366f1" opacity="0.8"/>
    <circle cx="55" cy="30" r="1.8" fill="#6366f1" opacity="0.8"/>
  </g>
  
  <!-- Typography -->
  <g transform="translate(10, 80)">
    <!-- Main Text -->
    <text x="0" y="20" font-family="Inter, 'Segoe UI', Tahoma, Geneva, Verdana, sans-serif" font-size="16" font-weight="700" fill="#1f2937" text-anchor="middle">Simplifi</text>
    <text x="50" y="20" font-family="Inter, 'Segoe UI', Tahoma, Geneva, Verdana, sans-serif" font-size="16" font-weight="700" fill="#374151" text-anchor="middle">Access</text>
    
    <!-- Tagline -->
    <text x="50" y="40" font-family="Inter, 'Segoe UI', Tahoma, Geneva, Verdana, sans-serif" font-size="9" font-weight="400" fill="#6b7280" text-anchor="middle">Simple Smart Access Control</text>
  </g>
</svg>