<?xml version="1.0" encoding="UTF-8"?>
<svg width="300" height="80" viewBox="0 0 300 80" fill="none" xmlns="http://www.w3.org/2000/svg">
  <!-- Background -->
  <rect width="300" height="80" rx="12" fill="white"/>
  
  <!-- Logo Icon -->
  <g transform="translate(20, 20)">
    <!-- Main Shield -->
    <path d="M20 2L35 8V22L20 28L5 22V8L20 2Z" fill="#2563eb" stroke="#1d4ed8" stroke-width="0.5"/>
    
    <!-- Inner Shield -->
    <path d="M20 6L30 10V18L20 22L10 18V10L20 6Z" fill="white"/>
    
    <!-- Door Symbol -->
    <rect x="16" y="12" width="8" height="8" rx="1" fill="#2563eb"/>
    <circle cx="21" cy="16" r="1" fill="white"/>
    
    <!-- Connection Lines (IoT) -->
    <path d="M2 15L8 15M32 15L38 15M2 20L8 20M32 20L38 20" stroke="#10b981" stroke-width="1.5" stroke-linecap="round"/>
    <circle cx="2" cy="15" r="1" fill="#10b981"/>
    <circle cx="38" cy="15" r="1" fill="#10b981"/>
    <circle cx="2" cy="20" r="1" fill="#10b981"/>
    <circle cx="38" cy="20" r="1" fill="#10b981"/>
  </g>
  
  <!-- Typography -->
  <g transform="translate(80, 25)">
    <!-- Main Text -->
    <text x="0" y="25" font-family="Inter, 'Segoe UI', Tahoma, Geneva, Verdana, sans-serif" font-size="24" font-weight="700" fill="#1f2937">Simplifi</text>
    <text x="120" y="25" font-family="Inter, 'Segoe UI', Tahoma, Geneva, Verdana, sans-serif" font-size="24" font-weight="700" fill="#2563eb">Access</text>
    
    <!-- Tagline -->
    <text x="0" y="45" font-family="Inter, 'Segoe UI', Tahoma, Geneva, Verdana, sans-serif" font-size="12" font-weight="400" fill="#6b7280">Smart Access Control System with ESP32 Integration</text>
  </g>
</svg>