<?xml version="1.0" encoding="UTF-8"?>
<svg width="64" height="64" viewBox="0 0 64 64" fill="none" xmlns="http://www.w3.org/2000/svg">
  <!-- Background Circle with gradient -->
  <defs>
    <linearGradient id="bgGradient" x1="0%" y1="0%" x2="100%" y2="100%">
      <stop offset="0%" style="stop-color:#374151;stop-opacity:1" />
      <stop offset="100%" style="stop-color:#1f2937;stop-opacity:1" />
    </linearGradient>
    <linearGradient id="accentGradientIcon" x1="0%" y1="0%" x2="100%" y2="100%">
      <stop offset="0%" style="stop-color:#6366f1;stop-opacity:1" />
      <stop offset="100%" style="stop-color:#4f46e5;stop-opacity:1" />
    </linearGradient>
  </defs>
  
  <circle cx="32" cy="32" r="30" fill="url(#bgGradient)" stroke="#111827" stroke-width="1.5"/>
  
  <!-- Main Shield -->
  <path d="M32 8L48 16V32L32 40L16 32V16L32 8Z" fill="white" stroke="#111827" stroke-width="0.8"/>
  
  <!-- Inner Shield -->
  <path d="M32 12L44 18V28L32 34L20 28V18L32 12Z" fill="url(#bgGradient)"/>
  
  <!-- Door Symbol with refined design -->
  <rect x="28" y="20" width="8" height="12" rx="1.5" fill="url(#accentGradientIcon)"/>
  <rect x="29.5" y="21.5" width="5" height="9" rx="0.8" fill="white"/>
  <circle cx="34" cy="26" r="1.8" fill="url(#accentGradientIcon)"/>
  
  <!-- Connection Lines (IoT) - refined -->
  <path d="M8 24L16 24M48 24L56 24M8 28L16 28M48 28L56 28" stroke="#6366f1" stroke-width="1.8" stroke-linecap="round" opacity="0.8"/>
  <circle cx="8" cy="24" r="1.8" fill="#6366f1" opacity="0.8"/>
  <circle cx="56" cy="24" r="1.8" fill="#6366f1" opacity="0.8"/>
  <circle cx="8" cy="28" r="1.8" fill="#6366f1" opacity="0.8"/>
  <circle cx="56" cy="28" r="1.8" fill="#6366f1" opacity="0.8"/>
</svg>