<?xml version="1.0" encoding="UTF-8"?>
<svg width="120" height="140" viewBox="0 0 120 140" fill="none" xmlns="http://www.w3.org/2000/svg">
  <!-- Background -->
  <rect width="120" height="140" rx="12" fill="white"/>
  
  <!-- Logo Icon -->
  <g transform="translate(30, 20)">
    <!-- Main Shield -->
    <path d="M30 5L50 15V35L30 45L10 35V15L30 5Z" fill="#2563eb" stroke="#1d4ed8" stroke-width="1"/>
    
    <!-- Inner Shield -->
    <path d="M30 10L45 17V30L30 37L15 30V17L30 10Z" fill="white"/>
    
    <!-- Door Symbol -->
    <rect x="25" y="20" width="10" height="12" rx="1.5" fill="#2563eb"/>
    <circle cx="32" cy="26" r="1.5" fill="white"/>
    
    <!-- Connection Lines (IoT) -->
    <path d="M5 25L15 25M45 25L55 25M5 30L15 30M45 30L55 30" stroke="#10b981" stroke-width="2" stroke-linecap="round"/>
    <circle cx="5" cy="25" r="1.5" fill="#10b981"/>
    <circle cx="55" cy="25" r="1.5" fill="#10b981"/>
    <circle cx="5" cy="30" r="1.5" fill="#10b981"/>
    <circle cx="55" cy="30" r="1.5" fill="#10b981"/>
  </g>
  
  <!-- Typography -->
  <g transform="translate(10, 80)">
    <!-- Main Text -->
    <text x="0" y="20" font-family="Inter, 'Segoe UI', Tahoma, Geneva, Verdana, sans-serif" font-size="16" font-weight="700" fill="#1f2937" text-anchor="middle">Simplifi</text>
    <text x="50" y="20" font-family="Inter, 'Segoe UI', Tahoma, Geneva, Verdana, sans-serif" font-size="16" font-weight="700" fill="#2563eb" text-anchor="middle">Access</text>
    
    <!-- Tagline -->
    <text x="50" y="40" font-family="Inter, 'Segoe UI', Tahoma, Geneva, Verdana, sans-serif" font-size="9" font-weight="400" fill="#6b7280" text-anchor="middle">Smart Access Control</text>
  </g>
</svg>